<?xml version="1.0" encoding="UTF-8" standalone="no"?>
<!-- Created with Inkscape (http://www.inkscape.org/) -->

<svg
   width="20mm"
   height="20mm"
   viewBox="0 0 19.999999 20"
   version="1.1"
   id="svg5"
   sodipodi:docname="drawing.svg"
   inkscape:version="1.2.2 (b0a8486541, 2022-12-01)"
   inkscape:export-filename="drawing.png"
   inkscape:export-xdpi="96"
   inkscape:export-ydpi="96"
   xmlns:inkscape="http://www.inkscape.org/namespaces/inkscape"
   xmlns:sodipodi="http://sodipodi.sourceforge.net/DTD/sodipodi-0.dtd"
   xmlns="http://www.w3.org/2000/svg"
   xmlns:svg="http://www.w3.org/2000/svg"
   xmlns:ns1="http://www.iki.fi/pav/software/textext/">
  <sodipodi:namedview
     id="namedview7"
     pagecolor="#ffffff"
     bordercolor="#000000"
     borderopacity="0.25"
     inkscape:showpageshadow="2"
     inkscape:pageopacity="0.0"
     inkscape:pagecheckerboard="0"
     inkscape:deskcolor="#d1d1d1"
     inkscape:document-units="mm"
     showgrid="false"
     inkscape:zoom="1.9886455"
     inkscape:cx="23.38275"
     inkscape:cy="8.0456773"
     inkscape:window-width="1301"
     inkscape:window-height="738"
     inkscape:window-x="65"
     inkscape:window-y="30"
     inkscape:window-maximized="1"
     inkscape:current-layer="g146" />
  <defs
     id="defs2" />
  <g
     inkscape:label="Layer 1"
     inkscape:groupmode="layer"
     id="layer1"
     transform="translate(-24.598538,-138.57404)">
    <g
       transform="matrix(1.76389,0,0,1.76389,25.8776,141.252)"
       ns1:version="1.8.2"
       ns1:texconverter="pdflatex"
       ns1:pdfconverter="inkscape"
       ns1:text="$\\mathcal{N}$"
       ns1:preamble="/home/nicolas/.config/inkscape/extensions/textext/default_packages.tex"
       ns1:scale="5.0"
       ns1:alignment="middle center"
       ns1:stroke-to-path="0"
       ns1:jacobian_sqrt="1.76389"
       id="g146">
      <defs
         id="id-a5d8e9ec-af37-4db1-b47a-a73fc6fc13ac">
        <g
           id="id-6682abe4-fe24-4a3f-94f6-6d5dd68b5162">
          <g
             id="id-2fb883b0-b3aa-4fa7-a7fc-1a7f5d313b76">
            <path
               d="m 3.046875,-5.71875 c 0.1875,0.515625 0.40625,1.265625 0.84375,2.484375 C 4.53125,-1.53125 4.8125,-0.921875 5.40625,0.03125 5.546875,0.234375 5.5625,0.25 5.65625,0.25 5.796875,0.25 6,0.125 6.109375,0.046875 6.25,-0.078125 6.265625,-0.09375 6.375,-0.578125 6.96875,-3.203125 7.71875,-5.9375 7.921875,-6.390625 7.9375,-6.40625 8.140625,-6.78125 9.359375,-6.8125 9.5625,-6.8125 9.75,-7.34375 9.75,-7.5625 c 0,-0.15625 -0.0625,-0.15625 -0.203125,-0.15625 -1,0 -1.4375,0.40625 -1.5625,0.546875 -0.28125,0.359375 -0.515625,1.078125 -0.96875,2.75 C 6.65625,-3.15625 6.34375,-1.859375 6.03125,-0.5625 5.484375,-1.390625 5.171875,-2.1875 4.6875,-3.46875 4.171875,-4.890625 3.84375,-5.921875 3.578125,-6.8125 c -0.0625,-0.203125 -0.0625,-0.21875 -0.15625,-0.21875 -0.015625,0 -0.21875,0 -0.515625,0.25 C 2.8125,-6.703125 2.796875,-6.609375 2.796875,-6.5 c -0.28125,2.65625 -1.21875,5.28125 -1.484375,5.75 -0.09375,0.15625 -0.203125,0.328125 -0.40625,0.328125 -0.09375,0 -0.484375,-0.046875 -0.75,-0.28125 C 0.109375,-0.75 0.09375,-0.75 0.078125,-0.75 c -0.15625,0 -0.375,0.5 -0.375,0.734375 C -0.296875,0.296875 0.3125,0.5 0.59375,0.5 1.234375,0.5 1.75,-0.90625 1.90625,-1.359375 2.546875,-3.171875 2.859375,-4.65625 3.046875,-5.71875 Z m 0,0"
               id="id-cd7e5891-0e33-4aa5-9555-033185b1e605" />
          </g>
        </g>
      </defs>
      <circle
         style="fill:#ffffff;fill-opacity:1;stroke:none;stroke-width:0.377953"
         id="path239"
         cx="4.9441504"
         cy="4.1510763"
         r="5.6692877" />
      <g
         fill="#000000"
         fill-opacity="1"
         id="id-9eb20542-46b9-4e02-9d31-0ff959b1327b"
         transform="translate(-148.415,-127.046)">
        <g
           transform="translate(148.712,134.765)"
           id="g143">
          <path
             d="m 3.046875,-5.71875 c 0.1875,0.515625 0.40625,1.265625 0.84375,2.484375 C 4.53125,-1.53125 4.8125,-0.921875 5.40625,0.03125 5.546875,0.234375 5.5625,0.25 5.65625,0.25 5.796875,0.25 6,0.125 6.109375,0.046875 6.25,-0.078125 6.265625,-0.09375 6.375,-0.578125 6.96875,-3.203125 7.71875,-5.9375 7.921875,-6.390625 7.9375,-6.40625 8.140625,-6.78125 9.359375,-6.8125 9.5625,-6.8125 9.75,-7.34375 9.75,-7.5625 c 0,-0.15625 -0.0625,-0.15625 -0.203125,-0.15625 -1,0 -1.4375,0.40625 -1.5625,0.546875 -0.28125,0.359375 -0.515625,1.078125 -0.96875,2.75 C 6.65625,-3.15625 6.34375,-1.859375 6.03125,-0.5625 5.484375,-1.390625 5.171875,-2.1875 4.6875,-3.46875 4.171875,-4.890625 3.84375,-5.921875 3.578125,-6.8125 c -0.0625,-0.203125 -0.0625,-0.21875 -0.15625,-0.21875 -0.015625,0 -0.21875,0 -0.515625,0.25 C 2.8125,-6.703125 2.796875,-6.609375 2.796875,-6.5 c -0.28125,2.65625 -1.21875,5.28125 -1.484375,5.75 -0.09375,0.15625 -0.203125,0.328125 -0.40625,0.328125 -0.09375,0 -0.484375,-0.046875 -0.75,-0.28125 C 0.109375,-0.75 0.09375,-0.75 0.078125,-0.75 c -0.15625,0 -0.375,0.5 -0.375,0.734375 C -0.296875,0.296875 0.3125,0.5 0.59375,0.5 1.234375,0.5 1.75,-0.90625 1.90625,-1.359375 2.546875,-3.171875 2.859375,-4.65625 3.046875,-5.71875 Z m 0,0"
             id="id-3d2fbced-f2c2-4ba0-ace8-214dbd2eda11" />
        </g>
      </g>
    </g>
  </g>
</svg>
