<?xml version="1.0" encoding="UTF-8" standalone="no"?>
<!-- Created with Inkscape (http://www.inkscape.org/) -->

<svg
   version="1.1"
   id="svg1"
   width="123.73438"
   height="93.474785"
   viewBox="0 0 123.73438 93.474783"
   sodipodi:docname="FAlgebra.svg"
   inkscape:version="1.4.2 (f4327f4, 2025-05-13)"
   xmlns:inkscape="http://www.inkscape.org/namespaces/inkscape"
   xmlns:sodipodi="http://sodipodi.sourceforge.net/DTD/sodipodi-0.dtd"
   xmlns="http://www.w3.org/2000/svg"
   xmlns:svg="http://www.w3.org/2000/svg"
   xmlns:ns2="http://www.iki.fi/pav/software/textext/">
  <sodipodi:namedview
     id="namedview1"
     pagecolor="#ffffff"
     bordercolor="#000000"
     borderopacity="0.25"
     inkscape:showpageshadow="2"
     inkscape:pageopacity="0.0"
     inkscape:pagecheckerboard="0"
     inkscape:deskcolor="#d1d1d1"
     inkscape:zoom="7.389492"
     inkscape:cx="62.182894"
     inkscape:cy="41.613145"
     inkscape:window-width="1920"
     inkscape:window-height="991"
     inkscape:window-x="-9"
     inkscape:window-y="-9"
     inkscape:window-maximized="1"
     inkscape:current-layer="g1">
    <inkscape:page
       x="4.0549931e-08"
       y="3.6946957e-08"
       inkscape:label="1"
       id="page1"
       width="123.73438"
       height="93.474785"
       margin="0"
       bleed="0" />
  </sodipodi:namedview>
  <defs
     id="defs1" />
  <g
     id="g1"
     inkscape:groupmode="layer"
     inkscape:label="1"
     transform="translate(-1.1679687,-10.660156)">
    <path
       id="path1"
       d="M 28.3468,26.73851 V -26.28023"
       style="fill:none;stroke:#000000;stroke-width:0.3985;stroke-linecap:butt;stroke-linejoin:miter;stroke-miterlimit:10;stroke-dasharray:none;stroke-opacity:1"
       transform="matrix(1.3333333,0,0,-1.3333333,63.252,64.001333)" />
    <path
       id="path2"
       d="M -1.19551,1.59401 C -1.09587,0.99626 0,0.09961 0.29886,0 0,-0.09961 -1.09587,-0.99626 -1.19551,-1.59401"
       style="fill:none;stroke:#000000;stroke-width:0.31879;stroke-linecap:round;stroke-linejoin:round;stroke-miterlimit:10;stroke-dasharray:none;stroke-opacity:1"
       transform="matrix(0,1.3333333,1.3333333,0,101.04773,99.04164)" />
    <path
       id="path3"
       d="M 25.456268,99.041639 V 28.349987"
       style="fill:none;stroke:#000000;stroke-width:0.531333;stroke-linecap:butt;stroke-linejoin:miter;stroke-miterlimit:10;stroke-dasharray:none;stroke-opacity:1" />
    <path
       id="path4"
       d="M 27.581614,97.447627 C 26.784614,97.58048 25.58908,99.04164 25.456267,99.44012 25.323454,99.04164 24.12792,97.58048 23.33092,97.447627"
       style="fill:none;stroke:#000000;stroke-width:0.425053;stroke-linecap:round;stroke-linejoin:round;stroke-miterlimit:10;stroke-dasharray:none;stroke-opacity:1" />
    <path
       id="path5"
       d="M -26.73851,28.3468 H 26.28023"
       style="fill:none;stroke:#000000;stroke-width:0.3985;stroke-linecap:butt;stroke-linejoin:miter;stroke-miterlimit:10;stroke-dasharray:none;stroke-opacity:1"
       transform="matrix(1.3333333,0,0,-1.3333333,63.252,64.001333)" />
    <path
       id="path6"
       d="M -1.19551,1.59401 C -1.09587,0.99626 0,0.09961 0.29886,0 0,-0.09961 -1.09587,-0.99626 -1.19551,-1.59401"
       style="fill:none;stroke:#000000;stroke-width:0.31879;stroke-linecap:round;stroke-linejoin:round;stroke-miterlimit:10;stroke-dasharray:none;stroke-opacity:1"
       transform="matrix(1.3333333,0,0,-1.3333333,98.292307,26.2056)" />
    <path
       id="path7"
       d="M -26.73851,-28.3468 H 26.28023"
       style="fill:none;stroke:#000000;stroke-width:0.3985;stroke-linecap:butt;stroke-linejoin:miter;stroke-miterlimit:10;stroke-dasharray:none;stroke-opacity:1"
       transform="matrix(1.3333333,0,0,-1.3333333,63.252,64.001333)" />
    <path
       id="path8"
       d="M -1.19551,1.59401 C -1.09587,0.99626 0,0.09961 0.29886,0 0,-0.09961 -1.09587,-0.99626 -1.19551,-1.59401"
       style="fill:none;stroke:#000000;stroke-width:0.31879;stroke-linecap:round;stroke-linejoin:round;stroke-miterlimit:10;stroke-dasharray:none;stroke-opacity:1"
       transform="matrix(1.3333333,0,0,-1.3333333,98.292307,101.79707)" />
    <path
       id="path9"
       d="m -26.93776,28.3468 c 0,0.77818 -0.63086,1.40904 -1.40904,1.40904 -0.77818,0 -1.40904,-0.63086 -1.40904,-1.40904 0,-0.77818 0.63086,-1.40904 1.40904,-1.40904 0.77818,0 1.40904,0.63086 1.40904,1.40904 z"
       style="fill:#000000;fill-opacity:1;fill-rule:nonzero;stroke:#000000;stroke-width:0.3985;stroke-linecap:butt;stroke-linejoin:miter;stroke-miterlimit:10;stroke-dasharray:none;stroke-opacity:1"
       transform="matrix(1.3333333,0,0,-1.3333333,63.252,64.001333)" />
    <path
       id="path10"
       d="m 29.75584,28.3468 c 0,0.77818 -0.63086,1.40904 -1.40904,1.40904 -0.77818,0 -1.40904,-0.63086 -1.40904,-1.40904 0,-0.77818 0.63086,-1.40904 1.40904,-1.40904 0.77818,0 1.40904,0.63086 1.40904,1.40904 z"
       style="fill:#000000;fill-opacity:1;fill-rule:nonzero;stroke:#000000;stroke-width:0.3985;stroke-linecap:butt;stroke-linejoin:miter;stroke-miterlimit:10;stroke-dasharray:none;stroke-opacity:1"
       transform="matrix(1.3333333,0,0,-1.3333333,63.252,64.001333)" />
    <path
       id="path11"
       d="m -26.93776,-28.3468 c 0,0.77818 -0.63086,1.40904 -1.40904,1.40904 -0.77818,0 -1.40904,-0.63086 -1.40904,-1.40904 0,-0.77818 0.63086,-1.40904 1.40904,-1.40904 0.77818,0 1.40904,0.63086 1.40904,1.40904 z"
       style="fill:#000000;fill-opacity:1;fill-rule:nonzero;stroke:#000000;stroke-width:0.3985;stroke-linecap:butt;stroke-linejoin:miter;stroke-miterlimit:10;stroke-dasharray:none;stroke-opacity:1"
       transform="matrix(1.3333333,0,0,-1.3333333,63.252,64.001333)" />
    <path
       id="path12"
       d="m 29.75584,-28.3468 c 0,0.77818 -0.63086,1.40904 -1.40904,1.40904 -0.77818,0 -1.40904,-0.63086 -1.40904,-1.40904 0,-0.77818 0.63086,-1.40904 1.40904,-1.40904 0.77818,0 1.40904,0.63086 1.40904,1.40904 z"
       style="fill:#000000;fill-opacity:1;fill-rule:nonzero;stroke:#000000;stroke-width:0.3985;stroke-linecap:butt;stroke-linejoin:miter;stroke-miterlimit:10;stroke-dasharray:none;stroke-opacity:1"
       transform="matrix(1.3333333,0,0,-1.3333333,63.252,64.001333)" />
    <g
       id="g12"
       aria-label="F(B)"
       transform="matrix(1.3333333,0,0,1.3333333,94.765333,20.629333)">
      <path
         id="path13"
         d="m 3.0236563,-3.2346953 h 0.9609375 c 0.75,0 0.8320312,0.1523437 0.8320312,0.4453125 0,0.070312 0,0.1875 -0.070312,0.4921875 -0.023437,0.046875 -0.035156,0.082031 -0.035156,0.1054687 0,0.082031 0.058594,0.1171875 0.1171875,0.1171875 0.1054687,0 0.1054687,-0.023437 0.1523437,-0.2109375 l 0.5507813,-2.15625 c 0.023437,-0.1054687 0.023437,-0.1289062 0.023437,-0.1640625 0,-0.011719 -0.011719,-0.1054687 -0.1171875,-0.1054687 -0.09375,0 -0.1054688,0.046875 -0.1523438,0.2109375 -0.1992187,0.7734375 -0.4335937,0.9492187 -1.2773437,0.9492187 H 3.0939688 L 3.7385,-6.0823516 c 0.082031,-0.3398437 0.09375,-0.3867187 0.5390625,-0.3867187 h 1.3125 c 1.21875,0 1.453125,0.328125 1.453125,1.1015625 0,0.2226562 0,0.2695312 -0.035156,0.5390625 -0.011719,0.1289062 -0.011719,0.140625 -0.011719,0.1757812 0,0.046875 0.023437,0.1171875 0.1171875,0.1171875 0.1054688,0 0.1171875,-0.058594 0.140625,-0.2460937 L 7.4533438,-6.5042266 C 7.4767813,-6.7737578 7.4299063,-6.7737578 7.1838125,-6.7737578 H 2.2970938 c -0.1992188,0 -0.2929688,0 -0.2929688,0.1992187 0,0.1054688 0.09375,0.1054688 0.28125,0.1054688 0.3632813,0 0.6445313,0 0.6445313,0.1875 0,0.035156 0,0.058594 -0.046875,0.234375 l -1.3242188,5.27343749 c -0.09375,0.38671875 -0.1171875,0.46875 -0.90234375,0.46875 -0.1640625,0 -0.28125,0 -0.28125,0.1875 0,0.1171874975 0.12890625,0.1171874975 0.15234375,0.1171874975 0.29296875,0 1.03125,-0.0351562475 1.3125,-0.0351562475 0.328125,0 1.1601563,0.0351562475 1.4882813,0.0351562475 0.09375,0 0.2109375,0 0.2109375,-0.1874999975 0,-0.0820313 -0.058594,-0.10546875 -0.058594,-0.1171875 -0.035156,0 -0.058594,0 -0.28125,0 -0.2226562,0 -0.2695312,0 -0.515625,-0.0234375 -0.2929687,-0.0351563 -0.328125,-0.0703125 -0.328125,-0.19921875 0,-0.0234375 0,-0.0820313 0.046875,-0.234375 z m 0,0"
         style="fill:#000000;fill-opacity:1;fill-rule:nonzero;stroke:none" />
      <path
         id="path14"
         d="m 11.086156,2.3903047 c 0,-0.035156 0,-0.046875 -0.164062,-0.2226563 -1.2421877,-1.25390621 -1.5703127,-3.12890621 -1.5703127,-4.6640625 0,-1.7226562 0.3867187,-3.4570312 1.6054687,-4.7109375 0.128906,-0.1171875 0.128906,-0.1289062 0.128906,-0.1640625 0,-0.070312 -0.03516,-0.1054687 -0.09375,-0.1054687 -0.105468,0 -0.9960935,0.6796875 -1.582031,1.9453125 -0.515625,1.1015625 -0.6328125,2.203125 -0.6328125,3.0351562 0,0.7851563 0.1171875,1.99218754 0.65625,3.11718754 0.5976565,1.21874996 1.4531255,1.87499996 1.5585935,1.87499996 0.05859,0 0.09375,-0.035156 0.09375,-0.1054687 z m 0,0"
         style="fill:#000000;fill-opacity:1;fill-rule:nonzero;stroke:none" />
      <path
         id="path15"
         d="m 13.259984,-0.77375781 c -0.09375,0.38671875 -0.117187,0.46875 -0.902343,0.46875 -0.175782,0 -0.269532,0 -0.269532,0.19921875 0,0.1054687475 0.08203,0.1054687475 0.269532,0.1054687475 h 3.550781 c 1.570312,0 2.753906,-1.1718749875 2.753906,-2.1562499875 0,-0.7148438 -0.585937,-1.2890625 -1.546875,-1.3945313 1.03125,-0.1992187 2.085938,-0.9375 2.085938,-1.875 0,-0.7382812 -0.65625,-1.3828125 -1.851563,-1.3828125 h -3.351562 c -0.1875,0 -0.292969,0 -0.292969,0.1992188 0,0.1171875 0.09375,0.1171875 0.28125,0.1171875 0.02344,0 0.210937,0 0.375,0.011719 0.1875,0.023437 0.269531,0.035156 0.269531,0.1640625 0,0.035156 -0.01172,0.070312 -0.03516,0.1875 z m 1.5,-2.87109379 0.621094,-2.4726562 c 0.09375,-0.3515625 0.105469,-0.375 0.539063,-0.375 h 1.289062 c 0.867188,0 1.078125,0.5859375 1.078125,1.0195312 0,0.8789063 -0.855469,1.828125 -2.074219,1.828125 z m -0.445312,3.33984379 c -0.140625,0 -0.152344,0 -0.222656,-0.0117188 -0.09375,-0.0117188 -0.128907,-0.0234375 -0.128907,-0.10546875 0,-0.0234375 0,-0.046875 0.05859,-0.22265625 l 0.679688,-2.77734379 h 1.886718 c 0.960938,0 1.148438,0.7265625 1.148438,1.1601563 0,0.984375 -0.890625,1.95703124 -2.0625,1.95703124 z m 0,0"
         style="fill:#000000;fill-opacity:1;fill-rule:nonzero;stroke:none" />
      <path
         id="path16"
         d="m 22.602758,-2.4964141 c 0,-0.7734375 -0.117188,-1.9804687 -0.65625,-3.1054687 -0.597656,-1.21875 -1.464844,-1.875 -1.558594,-1.875 -0.05859,0 -0.105469,0.046875 -0.105469,0.1054687 0,0.035156 0,0.046875 0.199219,0.234375 0.972656,0.984375 1.535156,2.5664063 1.535156,4.640625 0,1.71093754 -0.363281,3.45703129 -1.59375,4.7226563 -0.140625,0.1171875 -0.140625,0.1289062 -0.140625,0.1640625 0,0.058594 0.04687,0.1054687 0.105469,0.1054687 0.09375,0 0.996094,-0.6796875 1.582031,-1.94531246 0.503907,-1.1015625 0.632813,-2.20312504 0.632813,-3.04687504 z m 0,0"
         style="fill:#000000;fill-opacity:1;fill-rule:nonzero;stroke:none" />
    </g>
    <g
       id="g16"
       aria-label="F(A)"
       transform="matrix(1.3333333,0,0,1.3333333,0.66666667,20.629333)">
      <path
         id="path17"
         d="m 3.0244141,-3.2346953 h 0.9609375 c 0.75,0 0.8320312,0.1523437 0.8320312,0.4453125 0,0.070312 0,0.1875 -0.070312,0.4921875 -0.023437,0.046875 -0.035156,0.082031 -0.035156,0.1054687 0,0.082031 0.058594,0.1171875 0.1171875,0.1171875 0.1054687,0 0.1054687,-0.023437 0.1523437,-0.2109375 l 0.5507813,-2.15625 c 0.023437,-0.1054687 0.023437,-0.1289062 0.023437,-0.1640625 0,-0.011719 -0.011719,-0.1054687 -0.1171875,-0.1054687 -0.09375,0 -0.1054688,0.046875 -0.1523438,0.2109375 -0.1992187,0.7734375 -0.4335937,0.9492187 -1.2773437,0.9492187 H 3.0947266 l 0.6445312,-2.53125 c 0.082031,-0.3398437 0.09375,-0.3867187 0.5390625,-0.3867187 h 1.3125 c 1.21875,0 1.453125,0.328125 1.453125,1.1015625 0,0.2226562 0,0.2695312 -0.035156,0.5390625 -0.011719,0.1289062 -0.011719,0.140625 -0.011719,0.1757812 0,0.046875 0.023437,0.1171875 0.1171875,0.1171875 0.1054688,0 0.1171875,-0.058594 0.140625,-0.2460937 L 7.4541016,-6.5042266 C 7.4775391,-6.7737578 7.4306641,-6.7737578 7.1845703,-6.7737578 H 2.2978516 c -0.1992188,0 -0.2929688,0 -0.2929688,0.1992187 0,0.1054688 0.09375,0.1054688 0.28125,0.1054688 0.3632813,0 0.6445313,0 0.6445313,0.1875 0,0.035156 0,0.058594 -0.046875,0.234375 l -1.3242188,5.27343749 c -0.09375,0.38671875 -0.1171875,0.46875 -0.90234374,0.46875 -0.1640625,0 -0.28125,0 -0.28125,0.1875 0,0.1171874975 0.12890625,0.1171874975 0.15234375,0.1171874975 0.29296875,0 1.03124999,-0.0351562475 1.31249999,-0.0351562475 0.328125,0 1.1601563,0.0351562475 1.4882813,0.0351562475 0.09375,0 0.2109375,0 0.2109375,-0.1874999975 0,-0.0820313 -0.058594,-0.10546875 -0.058594,-0.1171875 -0.035156,0 -0.058594,0 -0.28125,0 -0.2226562,0 -0.2695312,0 -0.515625,-0.0234375 -0.2929687,-0.0351563 -0.328125,-0.0703125 -0.328125,-0.19921875 0,-0.0234375 0,-0.0820313 0.046875,-0.234375 z m 0,0"
         style="fill:#000000;fill-opacity:1;fill-rule:nonzero;stroke:none" />
      <path
         id="path18"
         d="m 11.083984,2.3903047 c 0,-0.035156 0,-0.046875 -0.164062,-0.2226563 -1.2421876,-1.25390621 -1.5703126,-3.12890621 -1.5703126,-4.6640625 0,-1.7226562 0.3867187,-3.4570312 1.6054686,-4.7109375 0.128906,-0.1171875 0.128906,-0.1289062 0.128906,-0.1640625 0,-0.070312 -0.03516,-0.1054687 -0.09375,-0.1054687 -0.105468,0 -0.9960934,0.6796875 -1.5820309,1.9453125 -0.515625,1.1015625 -0.6328125,2.203125 -0.6328125,3.0351562 0,0.7851563 0.1171875,1.99218754 0.65625,3.11718754 0.5976564,1.21874996 1.4531254,1.87499996 1.5585934,1.87499996 0.05859,0 0.09375,-0.035156 0.09375,-0.1054687 z m 0,0"
         style="fill:#000000;fill-opacity:1;fill-rule:nonzero;stroke:none" />
      <path
         id="path19"
         d="m 13.448242,-1.1487578 c -0.398437,0.66796874 -0.785156,0.80859374 -1.21875,0.84374999 -0.128906,0 -0.210937,0 -0.210937,0.19921875 0,0.05859375 0.04687,0.1054687475 0.128906,0.1054687475 0.269531,0 0.574219,-0.0351562475 0.855469,-0.0351562475 0.328125,0 0.679687,0.0351562475 0.996093,0.0351562475 0.05859,0 0.1875,0 0.1875,-0.1874999975 0,-0.1171875 -0.09375,-0.1171875 -0.164062,-0.1171875 -0.222656,-0.0234375 -0.457031,-0.10546875 -0.457031,-0.3515625 0,-0.1171875 0.05859,-0.234375 0.128906,-0.37499999 l 0.761719,-1.265625 h 2.496093 c 0.02344,0.1992187 0.164063,1.55859374 0.164063,1.66406249 0,0.29296875 -0.515625,0.328125 -0.714844,0.328125 -0.140625,0 -0.246094,0 -0.246094,0.19921875 0,0.1054687475 0.128907,0.1054687475 0.140625,0.1054687475 0.410157,0 0.84375,-0.0351562475 1.253907,-0.0351562475 0.246093,0 0.867187,0.0351562475 1.125,0.0351562475 0.05859,0 0.175781,0 0.175781,-0.1992187475 0,-0.10546875 -0.105469,-0.10546875 -0.234375,-0.10546875 -0.609375,0 -0.609375,-0.0703125 -0.644531,-0.36328125 L 17.362305,-6.8909453 c -0.01172,-0.1992188 -0.01172,-0.2460938 -0.1875,-0.2460938 -0.164063,0 -0.199219,0.070312 -0.257813,0.1757813 z m 1.195313,-1.4648438 1.96875,-3.28125 0.316406,3.28125 z m 0,0"
         style="fill:#000000;fill-opacity:1;fill-rule:nonzero;stroke:none" />
      <path
         id="path20"
         d="m 22.020508,-2.4964141 c 0,-0.7734375 -0.117188,-1.9804687 -0.65625,-3.1054687 -0.597656,-1.21875 -1.464844,-1.875 -1.558594,-1.875 -0.05859,0 -0.105469,0.046875 -0.105469,0.1054687 0,0.035156 0,0.046875 0.199219,0.234375 0.972656,0.984375 1.535156,2.5664063 1.535156,4.640625 0,1.71093754 -0.363281,3.45703129 -1.59375,4.7226563 -0.140625,0.1171875 -0.140625,0.1289062 -0.140625,0.1640625 0,0.058594 0.04687,0.1054687 0.105469,0.1054687 0.09375,0 0.996094,-0.6796875 1.582031,-1.94531246 0.503907,-1.1015625 0.632813,-2.20312504 0.632813,-3.04687504 z m 0,0"
         style="fill:#000000;fill-opacity:1;fill-rule:nonzero;stroke:none" />
    </g>
    <path
       id="path21"
       d="m 110.69922,95.855469 c -0.125,0.515625 -0.15625,0.625 -1.20313,0.625 -0.23437,0 -0.35937,0 -0.35937,0.265625 0,0.140625 0.10937,0.140625 0.35937,0.140625 h 4.73438 c 2.09375,0 3.67187,-1.5625 3.67187,-2.875 0,-0.953125 -0.78125,-1.71875 -2.0625,-1.859375 1.375,-0.265625 2.78125,-1.25 2.78125,-2.5 0,-0.984375 -0.875,-1.84375 -2.46875,-1.84375 h -4.46875 c -0.25,0 -0.39062,0 -0.39062,0.265625 0,0.15625 0.125,0.15625 0.375,0.15625 0.0312,0 0.28125,0 0.5,0.01563 0.25,0.03125 0.35937,0.04687 0.35937,0.21875 0,0.04687 -0.0156,0.09375 -0.0469,0.25 z m 2,-3.828125 0.82812,-3.296875 c 0.125,-0.46875 0.14063,-0.5 0.71875,-0.5 h 1.71875 c 1.15625,0 1.4375,0.78125 1.4375,1.359375 0,1.171875 -1.14062,2.4375 -2.76562,2.4375 z m -0.59375,4.453125 c -0.1875,0 -0.20313,0 -0.29688,-0.01563 -0.125,-0.01563 -0.17187,-0.03125 -0.17187,-0.140625 0,-0.03125 0,-0.0625 0.0781,-0.296875 l 0.90625,-3.703125 h 2.51563 c 1.28125,0 1.53125,0.96875 1.53125,1.546875 0,1.3125 -1.1875,2.609375 -2.75,2.609375 z m 0,0"
       style="fill:#000000;fill-opacity:1;fill-rule:nonzero;stroke:none;stroke-width:1.33333"
       aria-label="B" />
    <path
       id="path22"
       d="m 9.953125,95.355469 c -0.53125,0.890625 -1.0468751,1.078125 -1.6250001,1.125 -0.1718749,0 -0.2812499,0 -0.2812499,0.265625 0,0.07813 0.0625,0.140625 0.171875,0.140625 0.3593749,0 0.765625,-0.04687 1.140625,-0.04687 0.4375,0 0.90625,0.04687 1.328125,0.04687 0.07813,0 0.25,0 0.25,-0.25 0,-0.15625 -0.125,-0.15625 -0.21875,-0.15625 -0.296875,-0.03125 -0.609375,-0.140625 -0.609375,-0.46875 0,-0.15625 0.07813,-0.3125 0.171875,-0.5 l 1.015625,-1.6875 H 14.625 c 0.03125,0.265625 0.21875,2.078125 0.21875,2.21875 0,0.390625 -0.6875,0.4375 -0.953125,0.4375 -0.1875,0 -0.328125,0 -0.328125,0.265625 0,0.140625 0.171875,0.140625 0.1875,0.140625 0.546875,0 1.125,-0.04687 1.671875,-0.04687 0.328125,0 1.15625,0.04687 1.5,0.04687 0.07813,0 0.234375,0 0.234375,-0.265625 0,-0.140625 -0.140625,-0.140625 -0.3125,-0.140625 -0.8125,0 -0.8125,-0.09375 -0.859375,-0.484375 l -0.8125,-8.296875 c -0.01563,-0.265625 -0.01563,-0.328125 -0.25,-0.328125 -0.21875,0 -0.265625,0.09375 -0.34375,0.234375 z m 1.59375,-1.953125 2.625,-4.375 0.421875,4.375 z m 0,0"
       style="fill:#000000;fill-opacity:1;fill-rule:nonzero;stroke:none;stroke-width:1.33333"
       aria-label="A" />
    <path
       id="path23"
       d="m 1.6989063,1.6977656 c -0.046875,0.1289063 -0.058594,0.140625 -0.058594,0.1992188 0,0.2109375 0.1875,0.2695312 0.2929688,0.2695312 0.046875,0 0.2695312,-0.023437 0.3632812,-0.2578125 0.035156,-0.082031 0.082031,-0.4101562 0.3515625,-1.81640622 0.09375,0.01171875 0.1640625,0.01171875 0.328125,0.01171875 1.6523437,0 3.1875,-1.55859373 3.1875,-3.12890623 0,-0.7851563 -0.3867188,-1.3828125 -1.1367188,-1.3828125 -1.4414062,0 -2.0390624,1.9335937 -2.6367187,3.87890623 -1.078125,-0.19921875 -1.62890625,-0.76171873 -1.62890625,-1.47656253 0,-0.28125 0.22265625,-1.3710937 0.82031255,-2.0625 0.082031,-0.082031 0.082031,-0.1054687 0.082031,-0.1289062 0,-0.035156 -0.023437,-0.09375 -0.1171875,-0.09375 -0.28125,0 -1.04296875,1.4414062 -1.04296875,2.390625 0,0.93749998 0.65625005,1.66406248 1.72265625,1.92187498 z M 3.07,-0.47020312 c -0.082031,0 -0.1054687,0 -0.1757812,-0.0117188 -0.1289063,0 -0.140625,-0.0117188 -0.140625,-0.0351563 0,-0.0234375 0.1757812,-0.92578128 0.1992187,-1.07812498 0.3164063,-1.2773438 1.0898437,-2.2265625 1.9804687,-2.2265625 0.6796875,0 0.9492188,0.5273437 0.9492188,1.0078125 0,1.125 -1.2773438,2.34374998 -2.8125,2.34375008 z m 0,0"
       style="fill:#000000;fill-opacity:1;fill-rule:nonzero;stroke:none"
       aria-label="φ"
       transform="matrix(1.3333333,0,0,1.3333333,58.906667,93.916)" />
    <g
       id="g23"
       aria-label="F(φ)"
       transform="matrix(1.3333333,0,0,1.3333333,48.548,38.976)">
      <path
         id="path24"
         d="m 3.0225937,-3.2339531 h 0.9609375 c 0.75,0 0.8320313,0.1523437 0.8320313,0.4453125 0,0.070312 0,0.1875 -0.070312,0.4921875 -0.023437,0.046875 -0.035156,0.082031 -0.035156,0.1054687 0,0.082031 0.058594,0.1171875 0.1171875,0.1171875 0.1054688,0 0.1054688,-0.023437 0.1523438,-0.2109375 l 0.5507812,-2.15625 c 0.023437,-0.1054687 0.023437,-0.1289062 0.023437,-0.1640625 0,-0.011719 -0.011719,-0.1054687 -0.1171875,-0.1054687 -0.09375,0 -0.1054687,0.046875 -0.1523437,0.2109375 C 5.085094,-3.7261406 4.850719,-3.5503594 4.006969,-3.5503594 H 3.0929062 l 0.6445313,-2.53125 C 3.8194687,-6.4214531 3.8311875,-6.4683281 4.2765,-6.4683281 H 5.589 c 1.21875,0 1.453125,0.328125 1.453125,1.1015625 0,0.2226562 0,0.2695312 -0.035156,0.5390625 -0.011719,0.1289062 -0.011719,0.140625 -0.011719,0.1757812 0,0.046875 0.023437,0.1171875 0.1171875,0.1171875 0.1054687,0 0.1171875,-0.058594 0.140625,-0.2460937 L 7.4522812,-6.5034844 C 7.4757187,-6.7730156 7.4288437,-6.7730156 7.18275,-6.7730156 H 2.2960312 c -0.1992187,0 -0.2929687,0 -0.2929687,0.1992187 0,0.1054688 0.09375,0.1054688 0.28125,0.1054688 0.3632812,0 0.6445312,0 0.6445312,0.1875 0,0.035156 0,0.058594 -0.046875,0.234375 L 1.55775,-0.77301563 c -0.09375,0.38671875 -0.1171875,0.46875 -0.90234375,0.46875 -0.1640625,0 -0.28125,0 -0.28125,0.1875 0,0.117187505 0.12890625,0.117187505 0.15234375,0.117187505 0.29296875,0 1.03125,-0.035156255 1.3125,-0.035156255 0.328125,0 1.1601562,0.035156255 1.4882812,0.035156255 0.09375,0 0.2109375,0 0.2109375,-0.187500005 0,-0.0820313 -0.058594,-0.10546875 -0.058594,-0.1171875 -0.035156,0 -0.058594,0 -0.28125,0 -0.2226563,0 -0.2695313,0 -0.515625,-0.0234375 -0.2929688,-0.0351563 -0.328125,-0.0703125 -0.328125,-0.19921875 0,-0.0234375 0,-0.0820313 0.046875,-0.234375 z m 0,0"
         style="fill:#000000;fill-opacity:1;fill-rule:nonzero;stroke:none" />
      <path
         id="path25"
         d="m 11.085094,2.3910469 c 0,-0.035156 0,-0.046875 -0.164063,-0.2226563 -1.2421873,-1.25390623 -1.5703123,-3.12890623 -1.5703123,-4.6640625 0,-1.7226562 0.3867188,-3.4570312 1.6054683,-4.7109375 0.128907,-0.1171875 0.128907,-0.1289062 0.128907,-0.1640625 0,-0.070312 -0.03516,-0.1054687 -0.09375,-0.1054687 -0.105469,0 -0.996094,0.6796875 -1.5820315,1.9453125 -0.515625,1.1015625 -0.6328125,2.203125 -0.6328125,3.0351562 0,0.7851563 0.1171875,1.99218752 0.65625,3.11718752 0.597656,1.21874998 1.453125,1.87499998 1.558594,1.87499998 0.05859,0 0.09375,-0.035156 0.09375,-0.1054687 z m 0,0"
         style="fill:#000000;fill-opacity:1;fill-rule:nonzero;stroke:none" />
      <path
         id="path26"
         d="m 13.364391,1.6996406 c -0.04687,0.1289063 -0.05859,0.140625 -0.05859,0.1992188 0,0.2109375 0.1875,0.2695312 0.292969,0.2695312 0.04687,0 0.269531,-0.023437 0.363281,-0.2578125 0.03516,-0.082031 0.08203,-0.4101562 0.351562,-1.81640623 0.09375,0.01171875 0.164063,0.01171875 0.328125,0.01171875 1.652344,0 3.1875,-1.55859372 3.1875,-3.12890622 0,-0.7851563 -0.386718,-1.3828125 -1.136718,-1.3828125 -1.441407,0 -2.039063,1.9335937 -2.636719,3.87890622 -1.078125,-0.19921875 -1.628906,-0.76171872 -1.628906,-1.47656252 0,-0.28125 0.222656,-1.3710937 0.820312,-2.0625 0.08203,-0.082031 0.08203,-0.1054687 0.08203,-0.1289062 0,-0.035156 -0.02344,-0.09375 -0.117187,-0.09375 -0.28125,0 -1.042969,1.4414062 -1.042969,2.390625 0,0.93749997 0.65625,1.66406247 1.722656,1.92187497 z m 1.371093,-2.16796873 c -0.08203,0 -0.105468,0 -0.175781,-0.0117188 -0.128906,0 -0.140625,-0.0117188 -0.140625,-0.0351562 0,-0.0234375 0.175781,-0.92578127 0.199219,-1.07812497 0.316406,-1.2773438 1.089844,-2.2265625 1.980469,-2.2265625 0.679687,0 0.949218,0.5273437 0.949218,1.0078125 0,1.125 -1.277343,2.34374997 -2.8125,2.34374997 z m 0,0"
         style="fill:#000000;fill-opacity:1;fill-rule:nonzero;stroke:none" />
      <path
         id="path27"
         d="m 21.066539,-2.4956719 c 0,-0.7734375 -0.117187,-1.9804687 -0.65625,-3.1054687 -0.597656,-1.21875 -1.464844,-1.875 -1.558594,-1.875 -0.05859,0 -0.105468,0.046875 -0.105468,0.1054687 0,0.035156 0,0.046875 0.199218,0.234375 0.972657,0.984375 1.535157,2.5664063 1.535157,4.640625 0,1.71093752 -0.363282,3.45703127 -1.59375,4.7226563 -0.140625,0.1171875 -0.140625,0.1289062 -0.140625,0.1640625 0,0.058594 0.04687,0.1054687 0.105468,0.1054687 0.09375,0 0.996094,-0.6796875 1.582032,-1.94531248 0.503906,-1.1015625 0.632812,-2.20312502 0.632812,-3.04687502 z m 0,0"
         style="fill:#000000;fill-opacity:1;fill-rule:nonzero;stroke:none" />
    </g>
    <g
       id="g27"
       aria-label="α&#10;B"
       transform="matrix(1.3333333,0,0,1.3333333,82.777333,65.865333)">
      <path
         id="path28"
         d="m 4.7461016,-2.3540781 c 0,-1.5585938 -0.9257813,-2.0507813 -1.6523438,-2.0507813 -1.3710937,0 -2.68359374,1.4296875 -2.68359374,2.8359375 0,0.92578127 0.59765624,1.67578127 1.61718754,1.67578127 0.6210937,0 1.3359375,-0.22265625 2.0976562,-0.83203125 0.1289063,0.52734375 0.4570313,0.83203125 0.9023438,0.83203125 0.5273437,0 0.84375,-0.5390625 0.84375,-0.703125 0,-0.0703125 -0.058594,-0.10546875 -0.1289063,-0.10546875 -0.058594,0 -0.09375,0.0351563 -0.1289062,0.10546875 -0.1757813,0.4921875 -0.5273438,0.4921875 -0.5507813,0.4921875 -0.3164062,0 -0.3164062,-0.78515625 -0.3164062,-1.01953127 0,-0.2109375 0,-0.234375 0.1054687,-0.3515625 0.9375,-1.171875 1.1484375,-2.3320312 1.1484375,-2.34375 0,-0.011719 -0.011719,-0.09375 -0.1171875,-0.09375 -0.1054687,0 -0.1054687,0.023437 -0.1523437,0.2109375 -0.1875,0.6210938 -0.515625,1.3828125 -0.984375,1.96875 z m -0.65625,1.37109372 c -0.8789063,0.76171875 -1.6523438,0.87890625 -2.0507813,0.87890625 -0.5976562,0 -0.890625,-0.45703125 -0.890625,-1.08984377 0,-0.4921875 0.2578125,-1.5585937 0.5742188,-2.0742187 0.46875,-0.7265625 1.0078125,-0.9140625 1.359375,-0.9140625 0.984375,0 0.984375,1.3007812 0.984375,2.0859375 0,0.3632812 0,0.9375 0.023437,1.11328122 z m 0,0"
         style="fill:#000000;fill-opacity:1;fill-rule:nonzero;stroke:none" />
      <path
         id="path29"
         d="M 7.6962969,0.95353906 C 7.6377031,1.1879141 7.6259844,1.2465078 7.0869219,1.2465078 c -0.1171875,0 -0.2109375,0 -0.2109375,0.140625 0,0.1054688 0.082031,0.1054688 0.2109375,0.1054688 h 2.6953125 c 1.1718746,0 2.0742186,-0.79687504 2.0742186,-1.48828129 0,-0.50390625 -0.457031,-0.92578125 -1.195312,-0.99609375 0.84375,-0.16406246 1.546875,-0.69140626 1.546875,-1.28906246 0,-0.5273438 -0.539063,-0.984375 -1.441407,-0.984375 H 8.2236406 c -0.1289062,0 -0.2226562,0 -0.2226562,0.1523437 0,0.09375 0.082031,0.09375 0.2226562,0.09375 0.011719,0 0.140625,0 0.2695313,0.011719 0.140625,0.011719 0.1640625,0.035156 0.1640625,0.1054687 0,0.011719 0,0.046875 -0.035156,0.1523438 z M 8.8095781,-1.0855234 9.2431719,-2.7847422 c 0.046875,-0.2109375 0.058594,-0.234375 0.3515625,-0.234375 h 1.0546876 c 0.714844,0 0.878906,0.46875 0.878906,0.7382813 0,0.5625 -0.632812,1.1953125 -1.5703124,1.1953125 z m -0.328125,2.3320312 c -0.2226562,0 -0.2226562,-0.011719 -0.2226562,-0.070312 0,-0.011719 0,-0.046875 0.023437,-0.1523437 l 0.4804687,-1.91015629 h 1.4765624 c 0.65625,0 0.914062,0.43359375 0.914062,0.84375 0,0.6796875 -0.714844,1.28906249 -1.5585931,1.28906249 z m 0,0"
         style="fill:#000000;fill-opacity:1;fill-rule:nonzero;stroke:none" />
    </g>
  </g>
  <g
     id="g869"
     transform="matrix(1.33333,0,0,1.33333,26.033617,43.287133)"
     ns2:version="1.12.0"
     ns2:texconverter="pdflatex"
     ns2:pdfconverter="inkscape"
     ns2:text="$\\alpha^{-1}_A$"
     ns2:preamble="C:\Users\nicol\AppData\Roaming\inkscape\extensions\textext\default_packages.tex"
     ns2:scale="1.0"
     ns2:alignment="middle center"
     ns2:inkscapeversion="1.4.2"
     ns2:jacobian_sqrt="1.33333">
    <defs
       id="defs2504">
      <g
         id="g8583">
        <g
           id="g6282">
          <path
             d="m 4.75,-2.359375 c 0,-1.5625 -0.921875,-2.046875 -1.65625,-2.046875 -1.375,0 -2.6875,1.421875 -2.6875,2.828125 0,0.9375 0.59375,1.6875 1.625,1.6875 0.625,0 1.34375,-0.234375 2.09375,-0.84375 0.125,0.53125 0.453125,0.84375 0.90625,0.84375 0.53125,0 0.84375,-0.546875 0.84375,-0.703125 0,-0.078125 -0.0625,-0.109375 -0.125,-0.109375 -0.0625,0 -0.09375,0.03125 -0.125,0.109375 -0.1875,0.484375 -0.546875,0.484375 -0.5625,0.484375 -0.3125,0 -0.3125,-0.78125 -0.3125,-1.015625 0,-0.203125 0,-0.234375 0.109375,-0.34375 C 5.796875,-2.65625 6,-3.8125 6,-3.8125 6,-3.84375 5.984375,-3.921875 5.875,-3.921875 c -0.09375,0 -0.09375,0.03125 -0.140625,0.21875 -0.1875,0.625 -0.515625,1.375 -0.984375,1.96875 z m -0.65625,1.375 c -0.890625,0.765625 -1.65625,0.875 -2.046875,0.875 -0.59375,0 -0.90625,-0.453125 -0.90625,-1.09375 0,-0.484375 0.265625,-1.5625 0.578125,-2.0625 C 2.1875,-4 2.734375,-4.1875 3.078125,-4.1875 c 0.984375,0 0.984375,1.3125 0.984375,2.078125 0,0.375 0,0.953125 0.03125,1.125 z m 0,0"
             id="path8805" />
        </g>
        <g
           id="g6330">
          <path
             d="m 5.1875,-1.578125 c 0.109375,0 0.28125,0 0.28125,-0.15625 0,-0.1875 -0.171875,-0.1875 -0.28125,-0.1875 H 1.03125 c -0.109375,0 -0.28125,0 -0.28125,0.171875 0,0.171875 0.15625,0.171875 0.28125,0.171875 z m 0,0"
             id="path7330" />
        </g>
        <g
           id="g3952">
          <path
             d="m 2.328125,-4.4375 c 0,-0.1875 0,-0.1875 -0.203125,-0.1875 -0.453125,0.4375 -1.078125,0.4375 -1.359375,0.4375 v 0.25 c 0.15625,0 0.625,0 1,-0.1875 v 3.546875 c 0,0.234375 0,0.328125 -0.6875,0.328125 H 0.8125 V 0 c 0.125,0 0.984375,-0.03125 1.234375,-0.03125 0.21875,0 1.09375,0.03125 1.25,0.03125 V -0.25 H 3.03125 c -0.703125,0 -0.703125,-0.09375 -0.703125,-0.328125 z m 0,0"
             id="path5849" />
        </g>
        <g
           id="g7064">
          <path
             d="m 1.4375,-0.84375 c -0.25,0.390625 -0.46875,0.5625 -0.875,0.59375 -0.078125,0 -0.171875,0 -0.171875,0.140625 C 0.390625,-0.03125 0.453125,0 0.5,0 0.671875,0 0.90625,-0.03125 1.09375,-0.03125 1.3125,-0.03125 1.609375,0 1.8125,0 1.84375,0 1.953125,0 1.953125,-0.15625 1.953125,-0.25 1.859375,-0.25 1.828125,-0.25 1.78125,-0.265625 1.53125,-0.265625 1.53125,-0.453125 c 0,-0.09375 0.0625,-0.203125 0.09375,-0.265625 l 0.5625,-0.875 h 2 L 4.34375,-0.4375 C 4.328125,-0.359375 4.28125,-0.25 3.875,-0.25 c -0.09375,0 -0.1875,0 -0.1875,0.15625 C 3.6875,-0.0625 3.703125,0 3.796875,0 4,0 4.5,-0.03125 4.703125,-0.03125 c 0.125,0 0.28125,0.015625 0.40625,0.015625 C 5.234375,-0.015625 5.375,0 5.5,0 5.59375,0 5.640625,-0.0625 5.640625,-0.140625 5.640625,-0.25 5.5625,-0.25 5.453125,-0.25 c -0.40625,0 -0.421875,-0.0625 -0.4375,-0.21875 l -0.625,-4.3125 C 4.375,-4.921875 4.359375,-4.96875 4.234375,-4.96875 4.09375,-4.96875 4.0625,-4.90625 4,-4.8125 Z m 0.921875,-1 L 3.8125,-4.125 4.140625,-1.84375 Z m 0,0"
             id="path3807" />
        </g>
      </g>
    </defs>
    <g
       fill="#000000"
       fill-opacity="1"
       id="g411"
       transform="translate(-149.118,-125.878)">
      <g
         transform="translate(148.712,134.765)"
         id="g6538">
        <path
           d="m 4.75,-2.359375 c 0,-1.5625 -0.921875,-2.046875 -1.65625,-2.046875 -1.375,0 -2.6875,1.421875 -2.6875,2.828125 0,0.9375 0.59375,1.6875 1.625,1.6875 0.625,0 1.34375,-0.234375 2.09375,-0.84375 0.125,0.53125 0.453125,0.84375 0.90625,0.84375 0.53125,0 0.84375,-0.546875 0.84375,-0.703125 0,-0.078125 -0.0625,-0.109375 -0.125,-0.109375 -0.0625,0 -0.09375,0.03125 -0.125,0.109375 -0.1875,0.484375 -0.546875,0.484375 -0.5625,0.484375 -0.3125,0 -0.3125,-0.78125 -0.3125,-1.015625 0,-0.203125 0,-0.234375 0.109375,-0.34375 C 5.796875,-2.65625 6,-3.8125 6,-3.8125 6,-3.84375 5.984375,-3.921875 5.875,-3.921875 c -0.09375,0 -0.09375,0.03125 -0.140625,0.21875 -0.1875,0.625 -0.515625,1.375 -0.984375,1.96875 z m -0.65625,1.375 c -0.890625,0.765625 -1.65625,0.875 -2.046875,0.875 -0.59375,0 -0.90625,-0.453125 -0.90625,-1.09375 0,-0.484375 0.265625,-1.5625 0.578125,-2.0625 C 2.1875,-4 2.734375,-4.1875 3.078125,-4.1875 c 0.984375,0 0.984375,1.3125 0.984375,2.078125 0,0.375 0,0.953125 0.03125,1.125 z m 0,0"
           id="path4522" />
      </g>
    </g>
    <g
       fill="#000000"
       fill-opacity="1"
       id="g192"
       transform="translate(-149.118,-125.878)">
      <g
         transform="translate(155.085,137.693)"
         id="g7984">
        <path
           d="m 1.4375,-0.84375 c -0.25,0.390625 -0.46875,0.5625 -0.875,0.59375 -0.078125,0 -0.171875,0 -0.171875,0.140625 C 0.390625,-0.03125 0.453125,0 0.5,0 0.671875,0 0.90625,-0.03125 1.09375,-0.03125 1.3125,-0.03125 1.609375,0 1.8125,0 1.84375,0 1.953125,0 1.953125,-0.15625 1.953125,-0.25 1.859375,-0.25 1.828125,-0.25 1.78125,-0.265625 1.53125,-0.265625 1.53125,-0.453125 c 0,-0.09375 0.0625,-0.203125 0.09375,-0.265625 l 0.5625,-0.875 h 2 L 4.34375,-0.4375 C 4.328125,-0.359375 4.28125,-0.25 3.875,-0.25 c -0.09375,0 -0.1875,0 -0.1875,0.15625 C 3.6875,-0.0625 3.703125,0 3.796875,0 4,0 4.5,-0.03125 4.703125,-0.03125 c 0.125,0 0.28125,0.015625 0.40625,0.015625 C 5.234375,-0.015625 5.375,0 5.5,0 5.59375,0 5.640625,-0.0625 5.640625,-0.140625 5.640625,-0.25 5.5625,-0.25 5.453125,-0.25 c -0.40625,0 -0.421875,-0.0625 -0.4375,-0.21875 l -0.625,-4.3125 C 4.375,-4.921875 4.359375,-4.96875 4.234375,-4.96875 4.09375,-4.96875 4.0625,-4.90625 4,-4.8125 Z m 0.921875,-1 L 3.8125,-4.125 4.140625,-1.84375 Z m 0,0"
           id="path5430" />
      </g>
    </g>
  </g>
</svg>
